#!OML:ASF H:\MichaelJackson\Top Level 1\Subject 1\Session 1\male.ASF
:FULLY-SPECIFIED
:DEGREES
363
root 20.4967 16.2326 -29.9203 12.4229 9.31901 -6.04581
lowerback -0.698103 0.00561611 4.74125
upperback -2.68345 0.0274589 -0.876271
thorax -2.37139 -0.0984614 -3.56344
lowerneck -10.1649 1.32439 7.17946
upperneck -0.252545 0.93691 -0.431442
head 1.71007 0.472231 -1.3365
rclavicle -6.55989e-015 -1.82882e-014
rhumerus -17.3203 11.4956 -24.2085
rradius 105.73
rwrist -20.7792
rhand 1.00691 -29.4247
rfingers 7.12502
rthumb 26.5545 -417.583
lclavicle -6.55989e-015 -1.82882e-014
lhumerus -56.6643 -37.9851 108.717
lradius 62.3841
lwrist 17.8786
lhand 16.2505 17.4846
lfingers 7.12502
lthumb 41.0274 42.3922
rfemur -31.4603 4.10402 11.4068
rtibia 35.7121
rfoot -20.2588 -1.26368
rtoes -36.3984
lfemur -28.1206 26.681 -5.58692
ltibia 47.9223
lfoot -20.1597 -1.40398
ltoes -6.9943
364
root 20.4845 16.239 -29.915 12.0364 11.6791 -6.62893
lowerback -0.66682 -0.152528 5.09885
upperback -2.63836 -0.174304 -0.584899
thorax -2.36355 -0.202195 -3.4602
lowerneck -10.2159 1.00239 6.9662
upperneck -0.177111 0.528331 -0.371587
head 1.72492 0.271902 -1.29876
rclavicle 2.59414e-014 1.19271e-014
rhumerus -19.1947 13.1085 -26.3725
rradius 107.373
rwrist -19.6328
rhand 10.2749 -25.0971
rfingers 7.12502
rthumb 35.387 -411.562
lclavicle 2.59414e-014 1.19271e-014
lhumerus -56.2122 -38.0863 108.596
lradius 62.676
lwrist 17.9556
lhand 15.9256 17.3317
lfingers 7.12502
lthumb 40.7222 42.3357
rfemur -30.4134 3.89945 12.1701
rtibia 35.424
rfoot -19.6312 -2.99709
rtoes -36.2144
lfemur -30.4822 28.5905 -6.56791
ltibia 49.4898
lfoot -19.08 0.247018
ltoes -8.5474
365
root 20.4757 16.2426 -29.905 11.5501 14.1702 -7.24983
lowerback -0.650756 -0.311693 5.4718
upperback -2.59681 -0.377751 -0.284449
thorax -2.35158 -0.306723 -3.35588
lowerneck -10.2431 0.633744 6.73951
upperneck -0.0448045 0.0595443 -0.288217
head 1.75292 0.0433627 -1.25416
rclavicle -2.24627e-014 2.8625e-014
rhumerus -21.1966 14.5427 -28.6383
rradius 108.739
rwrist -18.4927
rhand 20.4173 -21.013
rfingers 7.12502
rthumb 44.9236 -404.543
lclavicle -2.24627e-014 2.8625e-014
lhumerus -55.7589 -38.2032 108.544
lradius 62.9108
lwrist 17.916
lhand 15.6447 17.1096
lfingers 7.12502
lthumb 40.4582 42.1958
rfemur -29.2858 3.51 12.9997
rtibia 35.1646
rfoot -19.0821 -4.62484
rtoes -35.9502
lfemur -32.8296 30.3996 -7.71542
ltibia 50.926
lfoot -18.0446 1.7383
ltoes -9.52823
366
root 20.4711 16.244 -29.8892 10.9468 16.753 -7.91306
lowerback -0.651422 -0.463834 5.84283
upperback -2.55797 -0.572662 0.0189425
thorax -2.33263 -0.4065 -3.24735
lowerneck -10.2346 0.221299 6.51292
upperneck 0.144495 -0.467114 -0.170697
head 1.79266 -0.21196 -1.20148
rclavicle -9.0447e-015 2.62396e-014
rhumerus -23.3468 15.7683 -31.0185
rradius 109.848
rwrist -17.5116
rhand 31.0298 -17.3118
rfingers 7.12502
rthumb 54.6304 -395.714
lclavicle -9.0447e-015 2.62396e-014
lhumerus -55.333 -38.3245 108.55
lradius 63.1359
lwrist 17.8159
lhand 15.4479 16.9583
lfingers 7.12502
lthumb 40.2731 42.1014
rfemur -28.0696 2.93695 13.8883
rtibia 34.9278
rfoot -18.6298 -6.10799
rtoes -35.5812
lfemur -35.0948 32.1225 -8.99372
ltibia 52.211
lfoot -17.1129 3.0433
ltoes -9.92655
367
root 20.4716 16.2444 -29.8671 10.2238 19.3826 -8.62126
lowerback -0.679049 -0.600029 6.20214
upperback -2.52316 -0.748285 0.315222
thorax -2.30108 -0.495897 -3.13991
lowerneck -10.1824 -0.233108 6.2913
upperneck 0.388443 -1.05038 -0.000419019
head 1.84256 -0.492947 -1.13542
rclavicle -2.68359e-014 7.15625e-015
rhumerus -25.6278 16.7121 -33.5204
rradius 110.69
rwrist -16.8493
rhand 41.6262 -14.2651
rfingers 7.12502
rthumb 63.7287 -383.426
lclavicle -2.68359e-014 7.15625e-015
lhumerus -54.9547 -38.4495 108.609
lradius 63.3601
lwrist 17.661
lhand 15.281 16.8436
lfingers 7.12502
lthumb 40.1161 42.0345
rfemur -26.7736 2.18116 14.8187
rtibia 34.7012
rfoot -18.2737 -7.41047
rtoes -35.0982
lfemur -37.2233 33.7521 -10.3629
ltibia 53.326
lfoot -16.3028 4.17948
ltoes -9.41554
368
root 20.4789 16.2453 -29.8372 9.39718 22.0434 -9.35455
lowerback -0.772771 -0.725956 6.52867
upperback -2.49023 -0.91618 0.588081
thorax -2.23357 -0.579691 -3.03924
lowerneck -10.0966 -0.722175 6.09294
upperneck 0.695581 -1.68468 0.227999
head 1.90832 -0.796234 -1.0574
rclavicle 6.59965e-014 -1.66979e-014
rhumerus -28.0344 17.2969 -36.1208
rradius 111.296
rwrist -16.6358
rhand 51.4581 -12.3074
rfingers 7.12502
rthumb 70.8756 -365.025
lclavicle 6.59965e-014 -1.66979e-014
lhumerus -54.6302 -38.5669 108.692
lradius 63.6024
lwrist 17.5016
lhand 15.1126 16.7368
lfingers 7.12502
lthumb 39.9576 41.9756
rfemur -25.4044 1.2126 15.7503
rtibia 34.479
rfoot -18.0218 -8.50049
rtoes -34.5282
lfemur -39.1884 35.3018 -11.8217
ltibia 54.2492
lfoot -15.6118 5.23787
ltoes -8.54106
369
root 20.4938 16.2475 -29.8001 8.47777 24.728 -10.1262
lowerback -0.948719 -0.85044 6.83301
upperback -2.46143 -1.09026 0.832311
thorax -2.12503 -0.664937 -2.95721
lowerneck -9.97069 -1.23612 5.91006
upperneck 1.04928 -2.35691 0.534353
head 1.98464 -1.11487 -0.958905
rclavicle 5.06901e-015 7.95139e-015
rhumerus -30.5224 17.4255 -38.7676
rradius 111.667
rwrist -16.8776
rhand 59.7797 -11.8997
rfingers 7.12502
rthumb 74.5513 -340.265
lclavicle 5.06901e-015 7.95139e-015
lhumerus -54.3579 -38.6597 108.767
lradius 63.8727
lwrist 17.3499
lhand 14.9399 16.5741
lfingers 7.12502
lthumb 39.7951 41.8616
rfemur -23.9905 0.0344926 16.6681
rtibia 34.266
rfoot -17.8367 -9.35611
rtoes -33.9297
lfemur -40.9806 36.7628 -13.3259
ltibia 54.9652
lfoot -15.088 6.23325
ltoes -7.45093
370
root 20.5164 16.2514 -29.7575 7.4705 27.4311 -10.9346
lowerback -1.18856 -0.986208 7.11443
upperback -2.43752 -1.28689 1.04156
thorax -1.9885 -0.760246 -2.90012
lowerneck -9.80764 -1.75627 5.74016
upperneck 1.42743 -3.04277 0.923005
head 2.06668 -1.43679 -0.836845
rclavicle 3.37934e-015 -1.98785e-014
rhumerus -32.9755 16.9865 -41.3843
rradius 111.769
rwrist -17.4712
rhand 65.9298 -13.2482
rfingers 7.12502
rthumb 74.7787 -319.034
lclavicle 3.37934e-015 -1.98785e-014
lhumerus -54.1206 -38.7108 108.799
lradius 64.1722
lwrist 17.2094
lhand 14.7529 16.372
lfingers 7.12502
lthumb 39.619 41.7118
rfemur -22.5624 -1.33974 17.5377
rtibia 34.0847
rfoot -17.6794 -9.94969
rtoes -33.3666
lfemur -42.5726 38.0843 -14.8259
ltibia 55.4566
lfoot -14.7235 7.18448
ltoes -6.19626
371
root 20.5464 16.2572 -29.7117 6.37409 30.1386 -11.7968
lowerback -1.46941 -1.14408 7.38975
upperback -2.42049 -1.51879 1.21671
thorax -1.84104 -0.872822 -2.87645
lowerneck -9.61801 -2.26928 5.57754
upperneck 1.82892 -3.72511 1.38394
head 2.15751 -1.75347 -0.692959
rclavicle -2.84262e-014 3.57812e-014
rhumerus -35.308 15.928 -43.8663
rradius 111.603
rwrist -18.2079
rhand 69.5459 -16.0276
rfingers 7.12502
rthumb 73.8108 -309.388
lclavicle -2.84262e-014 3.57812e-014
lhumerus -53.9114 -38.689 108.753
lradius 64.5133
lwrist 17.0732
lhand 14.5469 16.1278
lfingers 7.12502
lthumb 39.4249 41.5247
rfemur -21.1636 -2.89029 18.3408
rtibia 33.9745
rfoot -17.51 -10.2461
rtoes -32.9369
lfemur -43.94 39.2378 -16.2579
ltibia 55.7166
lfoot -14.4869 8.08213
ltoes -4.71228
